<!-- Generated by IcoMoon.io -->
<svg version="1.1" xmlns="http://www.w3.org/2000/svg" width="1024" height="1024" viewBox="0 0 1024 1024">
<title></title>
<g id="icomoon-ignore">
</g>
<path fill="#000" d="M511.993 68.854c153.549 0 278.457 149.149 278.457 332.47 0 90.167-29.843 174.589-84.034 237.74-52.404 61.085-121.442 94.712-194.427 94.712-72.964 0-142.005-33.627-194.427-94.695-54.187-63.171-84.034-147.626-84.034-237.758 0.003-183.324 124.911-332.47 278.463-332.47z"></path>
<path fill="#000" d="M0 955.128c10.059-122.858 124.574-232.507 298.348-284.434 2.723 2.969 5.674 5.57 8.468 8.433 3.482 3.535 6.93 7.090 10.519 10.448 4.367 4.047 8.856 7.813 13.384 11.579 3.659 3.058 7.265 6.169 11.013 9.016 4.702 3.57 9.565 6.824 14.391 10.077 3.784 2.563 7.532 5.215 11.405 7.585 5.040 3.076 10.219 5.763 15.399 8.504 3.89 2.050 7.71 4.261 11.668 6.136 5.393 2.563 10.91 4.667 16.424 6.859 3.908 1.556 7.742 3.307 11.722 4.685 5.834 2.015 11.793 3.553 17.716 5.179 3.784 1.025 7.496 2.282 11.333 3.164 6.631 1.502 13.366 2.474 20.101 3.464 3.253 0.477 6.436 1.221 9.707 1.609 10.042 1.114 20.19 1.733 30.409 1.733s20.35-0.601 30.409-1.733c3.342-0.37 6.613-1.15 9.953-1.644 6.649-1.007 13.313-1.944 19.855-3.431 3.926-0.901 7.742-2.175 11.597-3.253 5.852-1.591 11.704-3.111 17.431-5.090 4.065-1.396 8.009-3.2 12.039-4.791 5.393-2.157 10.803-4.225 16.089-6.735 4.047-1.908 7.956-4.154 11.935-6.276 5.073-2.687 10.166-5.339 15.117-8.344 3.944-2.421 7.742-5.108 11.597-7.728 4.791-3.236 9.565-6.418 14.214-9.953 3.784-2.865 7.425-6.012 11.102-9.088 4.51-3.766 8.999-7.514 13.331-11.544 3.57-3.324 7.002-6.877 10.448-10.379 2.83-2.883 5.799-5.499 8.539-8.486 173.757 51.944 288.271 161.593 298.33 284.452l-1023.994-0.015z"></path>
</svg>
