<!-- Generated by IcoMoon.io -->
<svg version="1.1" xmlns="http://www.w3.org/2000/svg" width="1024" height="1024" viewBox="0 0 1024 1024">
<title></title>
<g id="icomoon-ignore">
</g>
<path fill="#000" d="M777.263 292.911l-32.909-32.907-230.353 230.398-164.585-164.583-32.907 32.907 197.491 197.493z"></path>
<path fill="#000" d="M1024 512c0-282.765-229.237-512-512-512-282.765 0-512 229.235-512 512 0 282.763 229.235 512 512 512 282.763 0 512-229.237 512-512zM46.545 512c0-257.071 208.384-465.455 465.455-465.455s465.455 208.384 465.455 465.455-208.384 465.455-465.455 465.455-465.455-208.384-465.455-465.455z"></path>
</svg>
