<!-- Generated by IcoMoon.io -->
<svg version="1.1" xmlns="http://www.w3.org/2000/svg" width="1024" height="1024" viewBox="0 0 1024 1024">
<title></title>
<g id="icomoon-ignore">
</g>
<path fill="#000" d="M983.594 697.188l-450.282-237.876v-30.032c0.188-0.046 0.376-0.11 0.594-0.156 70.938-17.562 118.562-61.75 118.562-118.562 0-65.484-53.094-118.562-118.562-118.562-60.468 0-113.032 44.25-118.218 103.546-0.156 0.906-0.25 1.844-0.25 2.782 0 0.11-0.032 0.218-0.032 0.344 0 11.782 9.562 21.328 21.344 21.328s21.344-9.546 21.344-21.328h0.124c1.718-18.454 10.688-31.688 18.562-39.938 14.562-15.296 35.406-24.062 57.124-24.062 41.844 0 75.876 34.046 75.876 75.89 0 15.968-6.656 30.61-19.844 43.516-15.406 15.078-38.312 26.704-66.282 33.624 0 0-32.406 10-32.968 10.204v7.422h-0.032v53.984l-450.216 237.876c-24.156 12.436-40.438 35.812-40.438 62.624 0 39.876 36.032 72.188 80.468 72.188 0.812 0 2.406 0 2.406 0h858.282c0 0 1.594 0 2.406 0 44.438 0 80.438-32.312 80.438-72.188 0-26.812-16.25-50.188-40.406-62.624zM943.562 789.312h-863.092c-20.468 0-37.782-13.5-37.782-29.5 0-9.876 6.468-19.124 17.312-24.75l0.188-0.062 0.188-0.124 451.594-238.578 452.064 238.764c10.844 5.624 17.312 14.876 17.312 24.75-0.002 16-17.314 29.5-37.784 29.5z"></path>
</svg>
