<!-- Generated by IcoMoon.io -->
<svg version="1.1" xmlns="http://www.w3.org/2000/svg" width="1024" height="1024" viewBox="0 0 1024 1024">
<title></title>
<g id="icomoon-ignore">
</g>
<path fill="#000" d="M738.102 43.484c39.134 0 75.912 7.428 110.335 22.284s64.679 35.329 90.768 61.418 46.743 56.526 61.967 91.312c15.213 34.785 22.828 71.745 22.828 110.878 0 42.757-4.529 81.347-13.588 115.77s-20.833 65.766-35.329 94.029c-14.494 28.263-30.437 53.807-47.83 76.637-17.393 22.828-34.423 44.384-51.096 64.679l-14.126 16.306c-13.050 15.942-30.080 33.697-51.096 53.265s-43.48 39.489-67.391 59.784c-23.92 20.295-48.011 40.041-72.288 59.246-24.277 19.203-46.562 36.235-66.858 51.091-20.291 14.854-37.135 27.181-50.548 36.965-13.407 9.783-20.833 15.4-22.284 16.842-5.798 4.35-12.32 6.529-19.567 6.529-7.972 0-14.494-2.179-19.567-6.529-2.174-1.444-9.783-7.064-22.828-16.842-13.045-9.783-29.713-22.105-50.004-36.965-20.291-14.851-42.576-31.885-66.853-51.091s-48.373-38.952-72.288-59.246-46.381-40.222-67.397-59.784c-21.016-19.574-38.047-37.329-51.091-53.265l-14.132-16.306c-16.668-20.295-33.698-41.853-51.091-64.679-17.393-22.833-33.336-48.373-47.83-76.637s-26.27-59.606-35.329-94.029c-9.059-34.423-13.588-73.013-13.588-115.77 0-39.134 7.609-76.093 22.828-110.878s35.872-65.223 61.961-91.312 56.345-46.562 90.768-61.418 71.201-22.284 110.335-22.284c45.656 0 88.050 9.965 127.184 29.894s72.107 47.286 98.921 82.072c26.814-34.785 59.787-62.143 98.921-82.072s81.528-29.894 127.184-29.894z"></path>
</svg>
