<!-- Generated by IcoMoon.io -->
<svg version="1.1" xmlns="http://www.w3.org/2000/svg" width="1024" height="1024" viewBox="0 0 1024 1024">
<title></title>
<g id="icomoon-ignore">
</g>
<path fill="#000" d="M985.343 38.673c-25.779-25.786-56.671-38.673-92.661-38.673h-761.34c-36.002 0-66.885 12.892-92.671 38.673-25.781 25.774-38.668 56.662-38.668 92.657v761.333c0 35.99 12.885 66.885 38.668 92.661 25.786 25.779 56.676 38.675 92.671 38.675h761.331c35.983 0 66.885-12.896 92.664-38.675 25.786-25.777 38.661-56.671 38.661-92.661v-761.333c-0.002-36.002-12.875-66.873-38.654-92.657zM367.68 368.995c40.219-38.883 88.554-58.334 144.999-58.334 56.882 0 105.434 19.451 145.662 58.334 40.228 38.89 60.33 85.895 60.33 141.004 0 55.102-20.102 102.109-60.33 140.988-40.228 38.899-88.764 58.348-145.662 58.348-56.443 0-104.773-19.465-144.999-58.348-40.228-38.883-60.34-85.885-60.34-140.988 0-55.109 20.112-102.111 60.34-141.004zM908.016 865.341c0 11.547-4.012 21.209-12.004 28.992-8.016 7.776-17.557 11.666-28.679 11.666h-712.655c-11.554 0-21.228-3.89-28.999-11.666-7.783-7.766-11.671-17.445-11.671-28.992v-432.015h93.997c-8.885 28.004-13.328 57.12-13.328 87.335 0 85.353 31.107 158.117 93.329 218.352 62.229 60.211 137.116 90.331 224.671 90.331 57.778 0 111.108-13.784 160.013-41.337 48.889-27.57 87.531-65.005 115.996-112.344 28.448-47.336 42.671-99.006 42.671-155 0-30.215-4.46-59.324-13.345-87.335h90.009v432.015h-0.005zM908.016 269.992c0 12.889-4.444 23.78-13.347 32.667-8.885 8.894-19.768 13.335-32.665 13.335h-115.996c-12.882 0-23.782-4.444-32.667-13.335-8.887-8.887-13.328-19.778-13.328-32.667v-109.99c0-12.446 4.441-23.222 13.328-32.336 8.887-9.109 19.787-13.669 32.667-13.669h115.996c12.896 0 23.782 4.558 32.665 13.669 8.901 9.114 13.347 19.89 13.347 32.336v109.99z"></path>
</svg>
