<!-- Generated by IcoMoon.io -->
<svg version="1.1" xmlns="http://www.w3.org/2000/svg" width="1024" height="1024" viewBox="0 0 1024 1024">
<title></title>
<g id="icomoon-ignore">
</g>
<path fill="#000" d="M512 0c-210.558 0-381.855 171.367-381.855 382.007 0 313.84 343.847 620.279 358.49 633.173 6.675 5.879 15.019 8.823 23.366 8.823s16.691-2.941 23.369-8.823c14.636-12.891 358.486-319.329 358.486-633.173 0-210.641-171.298-382.007-381.855-382.007zM512 940.18c-76.021-73.666-311.141-320.746-311.141-558.173 0-171.646 139.578-311.293 311.141-311.293s311.141 139.647 311.141 311.293c0 237.423-235.12 484.504-311.141 558.173z"></path>
<path fill="#000" d="M512 204.052c-97.48 0-176.783 79.831-176.783 177.955 0 98.128 79.303 177.955 176.783 177.955s176.783-79.827 176.783-177.955c0-98.125-79.303-177.955-176.783-177.955zM512 489.248c-58.489 0-106.072-48.107-106.072-107.241 0-59.13 47.583-107.241 106.072-107.241s106.072 48.107 106.072 107.241c0 59.133-47.583 107.241-106.072 107.241z"></path>
</svg>
