<!-- Generated by IcoMoon.io -->
<svg version="1.1" xmlns="http://www.w3.org/2000/svg" width="1024" height="1024" viewBox="0 0 1024 1024">
<title></title>
<g id="icomoon-ignore">
</g>
<path fill="#000" d="M1023.511 807.94c2.17 16.624-2.896 31.077-15.177 43.361l-144.177 143.088c-6.504 7.227-14.994 13.375-25.473 18.429-10.479 5.061-20.776 8.313-30.89 9.756-0.723 0-2.896 0.186-6.511 0.547-3.608 0.36-8.306 0.544-14.087 0.544-13.735 0-35.959-2.349-66.674-7.048s-68.293-16.264-112.734-34.689c-44.453-18.429-94.859-46.075-151.227-82.929-56.368-36.852-116.353-87.444-179.95-151.765-50.588-49.866-92.504-97.563-125.748-143.091-33.244-45.531-59.983-87.628-80.219-126.292-20.237-38.664-35.414-73.714-45.531-105.152s-16.983-58.538-20.597-81.303-5.059-40.651-4.336-53.66c0.723-13.008 1.084-20.235 1.084-21.681 1.445-10.118 4.697-20.416 9.756-30.895s11.202-18.971 18.429-25.475l144.177-144.177c10.118-10.118 21.681-15.177 34.689-15.177 9.395 0 17.706 2.71 24.933 8.13s13.37 12.105 18.429 20.055l115.992 220.059c6.504 11.563 8.311 24.21 5.42 37.941s-9.034 25.294-18.429 34.689l-53.118 53.118c-1.445 1.445-2.71 3.794-3.794 7.046s-1.626 5.962-1.626 8.13c2.891 15.177 9.395 32.521 19.513 52.034 8.672 17.345 22.042 38.483 40.109 63.416s43.723 53.658 76.967 86.179c32.521 33.247 61.429 59.080 86.723 77.512 25.289 18.422 46.435 31.977 63.418 40.65s29.992 13.912 39.024 15.713l13.547 2.712c1.445 0 3.799-0.544 7.048-1.626 3.252-1.086 5.601-2.349 7.048-3.796l61.788-62.874c13.016-11.561 28.185-17.343 45.531-17.343 12.289 0 22.040 2.166 29.267 6.504h1.082l209.217 123.58c15.182 9.402 24.214 21.323 27.106 35.777z"></path>
</svg>
