<!-- Generated by IcoMoon.io -->
<svg version="1.1" xmlns="http://www.w3.org/2000/svg" width="1024" height="1024" viewBox="0 0 1024 1024">
<title></title>
<g id="icomoon-ignore">
</g>
<path fill="#000" d="M810.035 104.933c-70.486-67.666-168.031-104.933-274.665-104.933-162.889 0-263.073 66.771-318.432 122.781-68.227 69.026-107.351 160.679-107.351 251.464 0 113.986 47.678 201.474 127.52 234.022 5.36 2.196 10.754 3.303 16.041 3.303 16.844 0 30.19-11.021 34.814-28.7 2.695-10.143 8.94-35.164 11.655-46.026 5.813-21.451 1.116-31.769-11.559-46.707-23.092-27.323-33.846-59.633-33.846-101.683 0-124.901 93.004-257.646 265.378-257.646 136.771 0 221.733 77.735 221.733 202.868 0 78.964-17.009 152.092-47.902 205.923-21.468 37.403-59.217 81.989-117.17 81.989-25.061 0-47.572-10.294-61.777-28.241-13.419-16.966-17.841-38.883-12.445-61.724 6.097-25.807 14.41-52.727 22.455-78.753 14.674-47.532 28.545-92.426 28.545-128.244 0-61.265-37.664-102.43-93.714-102.43-71.232 0-127.038 72.349-127.038 164.709 0 45.296 12.038 79.175 17.488 92.185-8.973 38.021-62.305 264.060-72.421 306.685-5.849 24.882-41.086 221.409 17.237 237.081 65.529 17.607 124.102-173.798 130.063-195.427 4.832-17.59 21.738-84.103 32.099-124.99 31.633 30.471 82.567 51.070 132.128 51.070 93.43 0 177.454-42.043 236.595-118.378 57.358-74.040 88.948-177.236 88.948-290.564 0-88.598-38.047-175.941-104.378-239.63z"></path>
</svg>
