<!-- Generated by IcoMoon.io -->
<svg version="1.1" xmlns="http://www.w3.org/2000/svg" width="1024" height="1024" viewBox="0 0 1024 1024">
<title></title>
<g id="icomoon-ignore">
</g>
<path fill="#000" d="M1013.155 303.485c9.037 11.297 12.423 24.853 10.167 40.668l-42.928 246.272c-1.506 12.807-7.345 23.347-17.51 31.631-10.167 8.284-21.65 12.426-34.455 12.426h-625.843l-12.426 70.040h596.473c14.309 0 26.728 5.084 37.278 15.251 10.546 10.167 15.812 22.782 15.812 37.844s-5.268 27.677-15.812 37.844c-10.549 10.167-22.968 15.251-37.278 15.251h-659.735c-15.816 0-29.372-6.402-40.668-19.199-10.544-12.807-14.686-27.494-12.426-44.058l28.242-153.637-42.928-431.542-122.005-38.409c-14.309-4.519-24.665-13.181-31.066-25.983-6.402-12.805-7.719-26.359-3.954-40.668 4.519-14.309 13.368-24.665 26.547-31.066s26.547-7.719 40.104-3.954l155.896 49.706c9.791 3.012 17.887 8.661 24.288 16.945s10.355 17.7 11.862 28.244l9.037 85.856 707.18 79.078c15.816 2.254 27.865 9.408 36.15 21.458zM307.107 840.085c22.594 0 41.798 7.908 57.614 23.727 15.816 15.81 23.723 35.020 23.723 57.614 0 22.588-7.908 41.986-23.723 58.179s-35.020 24.288-57.614 24.288-41.798-8.096-57.614-24.288c-15.816-16.19-23.723-35.585-23.723-58.179s7.908-41.802 23.723-57.614c15.814-15.819 35.018-23.727 57.614-23.727zM789.479 840.085c22.59 0 41.8 7.908 57.616 23.727 15.808 15.81 23.723 35.020 23.723 57.614 0 22.588-7.91 41.986-23.723 58.179-15.816 16.192-35.026 24.288-57.616 24.288-22.594 0-41.802-8.096-57.612-24.288-15.816-16.19-23.729-35.585-23.729-58.179s7.91-41.802 23.729-57.614c15.814-15.819 35.018-23.727 57.612-23.727z"></path>
</svg>
