<!-- Generated by IcoMoon.io -->
<svg version="1.1" xmlns="http://www.w3.org/2000/svg" width="1024" height="1024" viewBox="0 0 1024 1024">
<title></title>
<g id="icomoon-ignore">
</g>
<path fill="#000" d="M1023.989 194.523c-37.689 16.7-78.129 28.026-120.618 33.083 43.384-25.98 76.594-67.187 92.334-116.139-40.696 24.059-85.616 41.529-133.48 50.999-38.328-40.888-92.846-66.356-153.316-66.356-116.010 0-210.072 94.062-210.072 210.009 0 16.444 1.856 32.505 5.44 47.864-174.559-8.768-329.345-92.399-432.941-219.481-18.109 30.971-28.411 67.059-28.411 105.581 0 72.883 37.113 137.191 93.423 174.815-34.426-1.151-66.804-10.621-95.15-26.363v2.624c0 101.741 72.435 186.652 168.48 205.978-17.597 4.735-36.153 7.359-55.35 7.359-13.565 0-26.683-1.344-39.544-3.904 26.746 83.505 104.301 144.228 196.188 145.893-71.859 56.31-162.466 89.776-260.879 89.776-16.956 0-33.658-1.024-50.102-2.88 92.975 59.702 203.354 94.511 321.988 94.511 386.423 0 597.648-320.069 597.648-597.648l-0.704-27.195c41.271-29.437 76.976-66.421 105.067-108.526z"></path>
</svg>
