<!-- Generated by IcoMoon.io -->
<svg version="1.1" xmlns="http://www.w3.org/2000/svg" width="1024" height="1024" viewBox="0 0 1024 1024">
<title></title>
<g id="icomoon-ignore">
</g>
<path fill="#000" d="M1018.571 747.514c-1.24-2.672-2.396-4.889-3.47-6.665-17.766-31.998-51.717-71.273-101.833-117.836l-1.059-1.066-0.53-0.523-0.536-0.536h-0.538c-22.745-21.682-37.148-36.261-43.18-43.725-11.036-14.218-13.509-28.61-7.477-43.193 4.261-11.018 20.269-34.285 47.985-69.835 14.579-18.84 26.125-33.94 34.651-45.316 61.495-81.754 88.156-133.997 79.977-156.747l-3.176-5.316c-2.134-3.201-7.643-6.129-16.519-8.799-8.896-2.665-20.267-3.105-34.132-1.33l-153.545 1.061c-2.487-0.881-6.039-0.799-10.667 0.269-4.622 1.068-6.934 1.604-6.934 1.604l-2.672 1.335-2.121 1.604c-1.778 1.061-3.733 2.926-5.867 5.593-2.123 2.657-3.899 5.776-5.318 9.329-16.717 43.008-35.723 82.994-57.054 119.958-13.152 22.041-25.23 41.142-36.261 57.316-11.016 16.168-20.257 28.080-27.716 35.716-7.47 7.643-14.211 13.766-20.265 18.392-6.045 4.627-10.659 6.583-13.854 5.867-3.203-0.715-6.218-1.425-9.074-2.134-4.973-3.201-8.973-7.554-11.989-13.062-3.029-5.509-5.068-12.442-6.134-20.795-1.061-8.358-1.688-15.548-1.867-21.593-0.166-6.037-0.090-14.577 0.271-25.594 0.37-11.023 0.536-18.482 0.536-22.392 0-13.509 0.263-28.17 0.792-43.986 0.538-15.817 0.973-28.349 1.337-37.581 0.362-9.242 0.53-19.019 0.53-29.327s-0.627-18.392-1.867-24.259c-1.225-5.86-3.105-11.548-5.584-17.062-2.493-5.509-6.142-9.77-10.93-12.795-4.797-3.021-10.762-5.419-17.86-7.201-18.84-4.263-42.831-6.569-71.982-6.928-66.108-0.71-108.585 3.559-127.423 12.801-7.464 3.905-14.218 9.24-20.257 15.989-6.4 7.823-7.292 12.091-2.672 12.794 21.329 3.195 36.429 10.838 45.316 22.922l3.203 6.403c2.491 4.62 4.978 12.799 7.468 24.526 2.486 11.727 4.090 24.7 4.795 38.911 1.774 25.951 1.774 48.166 0 66.645-1.78 18.487-3.46 32.879-5.064 43.187s-4.002 18.661-7.199 25.057c-3.203 6.398-5.333 10.308-6.401 11.727-1.066 1.419-1.955 2.314-2.661 2.665-4.62 1.77-9.425 2.672-14.398 2.672-4.98 0-11.019-2.491-18.127-7.47-7.105-4.978-14.48-11.817-22.123-20.526-7.643-8.711-16.263-20.885-25.863-36.522-9.593-15.638-19.546-34.119-29.854-55.445l-8.528-15.466c-5.331-9.949-12.614-24.437-21.856-43.449-9.247-19.019-17.421-37.417-24.526-55.189-2.84-7.464-7.107-13.146-12.794-17.057l-2.669-1.604c-1.774-1.419-4.622-2.926-8.528-4.532-3.912-1.604-7.994-2.754-12.263-3.462l-146.084 1.061c-14.928 0-25.057 3.382-30.39 10.136l-2.134 3.195c-1.066 1.78-1.604 4.622-1.604 8.534 0 3.91 1.066 8.71 3.201 14.392 21.326 50.121 44.517 98.458 69.573 145.020s46.83 84.068 65.308 112.486c18.482 28.439 37.32 55.279 56.515 80.507 19.195 25.238 31.901 41.411 38.117 48.517 6.224 7.119 11.113 12.441 14.667 15.994l13.331 12.794c8.53 8.532 21.057 18.75 37.585 30.655 16.532 11.912 34.834 23.639 54.916 35.2 20.086 11.542 43.452 20.961 70.113 28.246 26.657 7.292 52.603 10.218 77.84 8.807h61.314c12.435-1.074 21.856-4.984 28.259-11.733l2.121-2.672c1.427-2.121 2.762-5.417 3.994-9.852 1.247-4.443 1.867-9.337 1.867-14.661-0.364-15.281 0.799-29.053 3.458-41.314 2.657-12.258 5.686-21.499 9.074-27.723 3.386-6.218 7.206-11.466 11.458-15.72 4.261-4.263 7.298-6.846 9.079-7.735 1.77-0.894 3.184-1.501 4.25-1.866 8.53-2.842 18.569-0.090 30.132 8.271 11.554 8.353 22.39 18.666 32.526 30.924 10.131 12.269 22.302 26.033 36.517 41.314 14.224 15.286 26.661 26.65 37.32 34.125l10.659 6.398c7.119 4.269 16.36 8.179 27.736 11.733 11.356 3.552 21.305 4.441 29.848 2.665l136.482-2.129c13.499 0 24.003-2.235 31.454-6.67 7.466-4.443 11.901-9.337 13.331-14.661 1.427-5.33 1.503-11.376 0.271-18.136-1.264-6.743-2.51-11.458-3.75-14.123z"></path>
</svg>
